



<svg  viewBox="0 0 720 310" fill="none" xmlns="http://www.w3.org/2000/svg">
<g id="Frame 17" filter="url(#filter0_bd_346_2908)">
<g clip-path="url(#clip0_346_2908)">
<rect width="720" height="310" rx="20" fill="#C5E1E7"/>
<g id="055">
<path id="path" d="M147.349 -240.765C116.307 -245.461 110.876 -178.041 79.8367 -182.756C60.7951 -185.649 59.8572 -215.689 40.7971 -212.922C22.6159 -210.283 26.5151 -186.682 11.5122 -176.068C-29.712 -146.904 -81.072 -255.783 -113.339 -209.576C-160.202 -142.47 -0.335957 -138.479 -27.4969 -86.571C-42.3231 -58.2365 -101.189 -73.0504 -95.827 -41.5177C-87.7639 5.90406 -7.99221 -58.4404 22.2933 -22.8551C42.5471 0.943086 13.7828 42.298 42.4923 54.6054C75.9352 68.942 75.6833 2.86361 109.748 -9.92136C170.495 -32.7204 213.332 101.801 261.335 58.1137C309.452 14.3225 183.155 -38.9543 207.083 -99.4856C218.689 -128.848 276.036 -128.734 264.429 -158.095C252.122 -189.226 201.524 -142.763 173.358 -160.815C145.364 -178.758 180.218 -235.794 147.349 -240.765Z" stroke="white" stroke-width="16.2626" stroke-dasharray="2.71 2.71"/>
</g>
<g id="050" opacity="0.5">
<path id="path_2" d="M730.428 76.2598L720.366 24M748.456 62.4078L754.954 36.173M748.456 193.582L762.291 261.373M730.428 214.36L726.026 242.693M789.961 111.04L830 90.1117M679.279 111.04L634 82.5561M659.574 121.594H638.193M689.341 173.853L650.56 206.384M794.364 163.449L825.179 179.115M736.354 111.04L768.772 82.5561L759.104 126.99L798.347 138.099L759.104 149.208L768.772 179.115L739.482 163.449L711.045 202.187L714.458 156.044L659.574 146.359L706.111 126.99L697.111 84.8348L736.354 111.04Z" stroke="white" stroke-width="11.5566"/>
</g>
<path id="Vector" d="M25.018 148.461L16.797 150.334L8.57604 152.206L13.0614 159.334L17.5467 166.461L10.401 161.985L3.25961 157.508L1.38323 165.713L-0.493149 173.918L-2.36954 165.713L-4.24592 157.508L-11.3873 161.985L-18.5287 166.461L-14.0434 159.334L-9.55806 152.206L-17.779 150.334L-26 148.461L-17.779 146.588L-9.55806 144.716L-14.0434 137.588L-18.5287 130.457L-11.3873 134.933L-4.24592 139.41L-2.36954 131.205L-0.493149 123L1.38323 131.205L3.25961 139.41L10.401 134.933L17.5467 130.457L13.0614 137.588L8.57604 144.716L16.797 146.588L25.018 148.461Z" fill="#113F67" stroke="black" stroke-width="1.9671" stroke-miterlimit="10" stroke-linecap="round"/>
<g id="mood meter">
<g clip-path="url(#clip1_346_2908)">
<rect x="333" y="30" width="367" height="250.913" rx="10.4113" fill="white"/>



</g>
</g>
<path id="Mood Meter" d="M77.4441 141.2V169H72.8841V149.96L64.4041 169H61.2441L52.7241 149.96V169H48.1641V141.2H53.0841L62.8441 163L72.5641 141.2H77.4441ZM92.9975 169.36C90.9175 169.36 89.0375 168.893 87.3575 167.96C85.6775 167 84.3575 165.667 83.3975 163.96C82.4375 162.227 81.9575 160.227 81.9575 157.96C81.9575 155.72 82.4508 153.733 83.4375 152C84.4242 150.267 85.7708 148.933 87.4775 148C89.1842 147.067 91.0908 146.6 93.1975 146.6C95.3042 146.6 97.2108 147.067 98.9175 148C100.624 148.933 101.971 150.267 102.958 152C103.944 153.733 104.438 155.72 104.438 157.96C104.438 160.2 103.931 162.187 102.918 163.92C101.904 165.653 100.518 167 98.7575 167.96C97.0242 168.893 95.1042 169.36 92.9975 169.36ZM92.9975 165.4C94.1708 165.4 95.2642 165.12 96.2775 164.56C97.3175 164 98.1575 163.16 98.7975 162.04C99.4375 160.92 99.7575 159.56 99.7575 157.96C99.7575 156.36 99.4508 155.013 98.8375 153.92C98.2242 152.8 97.4108 151.96 96.3975 151.4C95.3842 150.84 94.2908 150.56 93.1175 150.56C91.9442 150.56 90.8508 150.84 89.8375 151.4C88.8508 151.96 88.0642 152.8 87.4775 153.92C86.8908 155.013 86.5975 156.36 86.5975 157.96C86.5975 160.333 87.1975 162.173 88.3975 163.48C89.6242 164.76 91.1575 165.4 92.9975 165.4ZM118.505 169.36C116.425 169.36 114.545 168.893 112.865 167.96C111.185 167 109.865 165.667 108.905 163.96C107.945 162.227 107.465 160.227 107.465 157.96C107.465 155.72 107.959 153.733 108.945 152C109.932 150.267 111.279 148.933 112.985 148C114.692 147.067 116.599 146.6 118.705 146.6C120.812 146.6 122.719 147.067 124.425 148C126.132 148.933 127.479 150.267 128.465 152C129.452 153.733 129.945 155.72 129.945 157.96C129.945 160.2 129.439 162.187 128.425 163.92C127.412 165.653 126.025 167 124.265 167.96C122.532 168.893 120.612 169.36 118.505 169.36ZM118.505 165.4C119.679 165.4 120.772 165.12 121.785 164.56C122.825 164 123.665 163.16 124.305 162.04C124.945 160.92 125.265 159.56 125.265 157.96C125.265 156.36 124.959 155.013 124.345 153.92C123.732 152.8 122.919 151.96 121.905 151.4C120.892 150.84 119.799 150.56 118.625 150.56C117.452 150.56 116.359 150.84 115.345 151.4C114.359 151.96 113.572 152.8 112.985 153.92C112.399 155.013 112.105 156.36 112.105 157.96C112.105 160.333 112.705 162.173 113.905 163.48C115.132 164.76 116.665 165.4 118.505 165.4ZM132.933 157.88C132.933 155.667 133.386 153.707 134.293 152C135.226 150.293 136.48 148.973 138.053 148.04C139.653 147.08 141.426 146.6 143.373 146.6C144.813 146.6 146.226 146.92 147.613 147.56C149.026 148.173 150.146 149 150.973 150.04V139.4H155.573V169H150.973V165.68C150.226 166.747 149.186 167.627 147.853 168.32C146.546 169.013 145.04 169.36 143.333 169.36C141.413 169.36 139.653 168.88 138.053 167.92C136.48 166.933 135.226 165.573 134.293 163.84C133.386 162.08 132.933 160.093 132.933 157.88ZM150.973 157.96C150.973 156.44 150.653 155.12 150.013 154C149.4 152.88 148.586 152.027 147.573 151.44C146.56 150.853 145.466 150.56 144.293 150.56C143.12 150.56 142.026 150.853 141.013 151.44C140 152 139.173 152.84 138.533 153.96C137.92 155.053 137.613 156.36 137.613 157.88C137.613 159.4 137.92 160.733 138.533 161.88C139.173 163.027 140 163.907 141.013 164.52C142.053 165.107 143.146 165.4 144.293 165.4C145.466 165.4 146.56 165.107 147.573 164.52C148.586 163.933 149.4 163.08 150.013 161.96C150.653 160.813 150.973 159.48 150.973 157.96ZM201.233 141.2V169H196.673V149.96L188.193 169H185.033L176.513 149.96V169H171.953V141.2H176.873L186.633 163L196.353 141.2H201.233ZM227.427 157.44C227.427 158.267 227.373 159.013 227.267 159.68H210.427C210.56 161.44 211.213 162.853 212.387 163.92C213.56 164.987 215 165.52 216.707 165.52C219.16 165.52 220.893 164.493 221.907 162.44H226.827C226.16 164.467 224.947 166.133 223.187 167.44C221.453 168.72 219.293 169.36 216.707 169.36C214.6 169.36 212.707 168.893 211.027 167.96C209.373 167 208.067 165.667 207.107 163.96C206.173 162.227 205.707 160.227 205.707 157.96C205.707 155.693 206.16 153.707 207.067 152C208 150.267 209.293 148.933 210.947 148C212.627 147.067 214.547 146.6 216.707 146.6C218.787 146.6 220.64 147.053 222.267 147.96C223.893 148.867 225.16 150.147 226.067 151.8C226.973 153.427 227.427 155.307 227.427 157.44ZM222.667 156C222.64 154.32 222.04 152.973 220.867 151.96C219.693 150.947 218.24 150.44 216.507 150.44C214.933 150.44 213.587 150.947 212.467 151.96C211.347 152.947 210.68 154.293 210.467 156H222.667ZM237.234 150.68V162.88C237.234 163.707 237.421 164.307 237.794 164.68C238.194 165.027 238.861 165.2 239.794 165.2H242.594V169H238.994C236.941 169 235.367 168.52 234.274 167.56C233.181 166.6 232.634 165.04 232.634 162.88V150.68H230.034V146.96H232.634V141.48H237.234V146.96H242.594V150.68H237.234ZM266.997 157.44C266.997 158.267 266.944 159.013 266.837 159.68H249.997C250.13 161.44 250.784 162.853 251.957 163.92C253.13 164.987 254.57 165.52 256.277 165.52C258.73 165.52 260.464 164.493 261.477 162.44H266.397C265.73 164.467 264.517 166.133 262.757 167.44C261.024 168.72 258.864 169.36 256.277 169.36C254.17 169.36 252.277 168.893 250.597 167.96C248.944 167 247.637 165.667 246.677 163.96C245.744 162.227 245.277 160.227 245.277 157.96C245.277 155.693 245.73 153.707 246.637 152C247.57 150.267 248.864 148.933 250.517 148C252.197 147.067 254.117 146.6 256.277 146.6C258.357 146.6 260.21 147.053 261.837 147.96C263.464 148.867 264.73 150.147 265.637 151.8C266.544 153.427 266.997 155.307 266.997 157.44ZM262.237 156C262.21 154.32 261.61 152.973 260.437 151.96C259.264 150.947 257.81 150.44 256.077 150.44C254.504 150.44 253.157 150.947 252.037 151.96C250.917 152.947 250.25 154.293 250.037 156H262.237ZM276.044 150.16C276.711 149.04 277.591 148.173 278.684 147.56C279.804 146.92 281.124 146.6 282.644 146.6V151.32H281.484C279.698 151.32 278.338 151.773 277.404 152.68C276.498 153.587 276.044 155.16 276.044 157.4V169H271.484V146.96H276.044V150.16Z" fill="black"/>
</g>
</g>
<defs>
<filter id="filter0_bd_346_2908" x="-20" y="-20" width="760" height="350" filterUnits="userSpaceOnUse" color-interpolation-filters="sRGB">
<feFlood flood-opacity="0" result="BackgroundImageFix"/>
<feGaussianBlur in="BackgroundImageFix" stdDeviation="10"/>
<feComposite in2="SourceAlpha" operator="in" result="effect1_backgroundBlur_346_2908"/>
<feColorMatrix in="SourceAlpha" type="matrix" values="0 0 0 0 0 0 0 0 0 0 0 0 0 0 0 0 0 0 127 0" result="hardAlpha"/>
<feOffset/>
<feGaussianBlur stdDeviation="6"/>
<feComposite in2="hardAlpha" operator="out"/>
<feColorMatrix type="matrix" values="0 0 0 0 0 0 0 0 0 0 0 0 0 0 0 0 0 0 0.12 0"/>
<feBlend mode="normal" in2="effect1_backgroundBlur_346_2908" result="effect2_dropShadow_346_2908"/>
<feBlend mode="normal" in="SourceGraphic" in2="effect2_dropShadow_346_2908" result="shape"/>
</filter>
<filter id="filter1_d_346_2908" x="602.708" y="25" width="86" height="69" filterUnits="userSpaceOnUse" color-interpolation-filters="sRGB">
<feFlood flood-opacity="0" result="BackgroundImageFix"/>
<feColorMatrix in="SourceAlpha" type="matrix" values="0 0 0 0 0 0 0 0 0 0 0 0 0 0 0 0 0 0 127 0" result="hardAlpha"/>
<feOffset dy="2"/>
<feGaussianBlur stdDeviation="11"/>
<feComposite in2="hardAlpha" operator="out"/>
<feColorMatrix type="matrix" values="0 0 0 0 0 0 0 0 0 0 0 0 0 0 0 0 0 0 0.17 0"/>
<feBlend mode="normal" in2="BackgroundImageFix" result="effect1_dropShadow_346_2908"/>
<feBlend mode="normal" in="SourceGraphic" in2="effect1_dropShadow_346_2908" result="shape"/>
</filter>
<clipPath id="clip0_346_2908">
<rect width="720" height="310" rx="20" fill="white"/>
</clipPath>
<clipPath id="clip1_346_2908">
<rect x="333" y="30" width="367" height="250.913" rx="10.4113" fill="white"/>
</clipPath>
</defs>
</svg>






