



<svg  viewBox="0 0 720 310" fill="none" xmlns="http://www.w3.org/2000/svg">
<g id="Frame 17" filter="url(#filter0_bd_346_2908)">
<g clip-path="url(#clip0_346_2908)">
<rect width="720" height="310" rx="20" fill="#C5E1E7"/>
<g id="055">
<path id="path" d="M147.349 -240.765C116.307 -245.461 110.876 -178.041 79.8367 -182.756C60.7951 -185.649 59.8572 -215.689 40.7971 -212.922C22.6159 -210.283 26.5151 -186.682 11.5122 -176.068C-29.712 -146.904 -81.072 -255.783 -113.339 -209.576C-160.202 -142.47 -0.335957 -138.479 -27.4969 -86.571C-42.3231 -58.2365 -101.189 -73.0504 -95.827 -41.5177C-87.7639 5.90406 -7.99221 -58.4404 22.2933 -22.8551C42.5471 0.943086 13.7828 42.298 42.4923 54.6054C75.9352 68.942 75.6833 2.86361 109.748 -9.92136C170.495 -32.7204 213.332 101.801 261.335 58.1137C309.452 14.3225 183.155 -38.9543 207.083 -99.4856C218.689 -128.848 276.036 -128.734 264.429 -158.095C252.122 -189.226 201.524 -142.763 173.358 -160.815C145.364 -178.758 180.218 -235.794 147.349 -240.765Z" stroke="white" stroke-width="16.2626" stroke-dasharray="2.71 2.71"/>
</g>
<g id="050" opacity="0.5">
<path id="path_2" d="M730.428 76.2598L720.366 24M748.456 62.4078L754.954 36.173M748.456 193.582L762.291 261.373M730.428 214.36L726.026 242.693M789.961 111.04L830 90.1117M679.279 111.04L634 82.5561M659.574 121.594H638.193M689.341 173.853L650.56 206.384M794.364 163.449L825.179 179.115M736.354 111.04L768.772 82.5561L759.104 126.99L798.347 138.099L759.104 149.208L768.772 179.115L739.482 163.449L711.045 202.187L714.458 156.044L659.574 146.359L706.111 126.99L697.111 84.8348L736.354 111.04Z" stroke="white" stroke-width="11.5566"/>
</g>
<path id="Vector" d="M25.018 148.461L16.797 150.334L8.57604 152.206L13.0614 159.334L17.5467 166.461L10.401 161.985L3.25961 157.508L1.38323 165.713L-0.493149 173.918L-2.36954 165.713L-4.24592 157.508L-11.3873 161.985L-18.5287 166.461L-14.0434 159.334L-9.55806 152.206L-17.779 150.334L-26 148.461L-17.779 146.588L-9.55806 144.716L-14.0434 137.588L-18.5287 130.457L-11.3873 134.933L-4.24592 139.41L-2.36954 131.205L-0.493149 123L1.38323 131.205L3.25961 139.41L10.401 134.933L17.5467 130.457L13.0614 137.588L8.57604 144.716L16.797 146.588L25.018 148.461Z" fill="#113F67" stroke="black" stroke-width="1.9671" stroke-miterlimit="10" stroke-linecap="round"/>

</g>
</g>
<defs>
<filter id="filter0_bd_346_2908" x="-20" y="-20" width="760" height="350" filterUnits="userSpaceOnUse" color-interpolation-filters="sRGB">
<feFlood flood-opacity="0" result="BackgroundImageFix"/>
<feGaussianBlur in="BackgroundImageFix" stdDeviation="10"/>
<feComposite in2="SourceAlpha" operator="in" result="effect1_backgroundBlur_346_2908"/>
<feColorMatrix in="SourceAlpha" type="matrix" values="0 0 0 0 0 0 0 0 0 0 0 0 0 0 0 0 0 0 127 0" result="hardAlpha"/>
<feOffset/>
<feGaussianBlur stdDeviation="6"/>
<feComposite in2="hardAlpha" operator="out"/>
<feColorMatrix type="matrix" values="0 0 0 0 0 0 0 0 0 0 0 0 0 0 0 0 0 0 0.12 0"/>
<feBlend mode="normal" in2="effect1_backgroundBlur_346_2908" result="effect2_dropShadow_346_2908"/>
<feBlend mode="normal" in="SourceGraphic" in2="effect2_dropShadow_346_2908" result="shape"/>
</filter>
<filter id="filter1_d_346_2908" x="602.708" y="25" width="86" height="69" filterUnits="userSpaceOnUse" color-interpolation-filters="sRGB">
<feFlood flood-opacity="0" result="BackgroundImageFix"/>
<feColorMatrix in="SourceAlpha" type="matrix" values="0 0 0 0 0 0 0 0 0 0 0 0 0 0 0 0 0 0 127 0" result="hardAlpha"/>
<feOffset dy="2"/>
<feGaussianBlur stdDeviation="11"/>
<feComposite in2="hardAlpha" operator="out"/>
<feColorMatrix type="matrix" values="0 0 0 0 0 0 0 0 0 0 0 0 0 0 0 0 0 0 0.17 0"/>
<feBlend mode="normal" in2="BackgroundImageFix" result="effect1_dropShadow_346_2908"/>
<feBlend mode="normal" in="SourceGraphic" in2="effect1_dropShadow_346_2908" result="shape"/>
</filter>
<clipPath id="clip0_346_2908">
<rect width="720" height="310" rx="20" fill="white"/>
</clipPath>
<clipPath id="clip1_346_2908">
<rect x="333" y="30" width="367" height="250.913" rx="10.4113" fill="white"/>
</clipPath>
</defs>
</svg>






