<svg width="76" height="50" viewBox="0 0 76 50" fill="none" xmlns="http://www.w3.org/2000/svg">
<path id="&#226;&#128;&#157;" d="M8.33672 49.3115C6.19003 48.3098 5.79893 45.3411 7.36013 43.5595C8.67108 42.0634 9.98203 40.3299 11.293 38.3588C11.5996 37.8977 11.8898 37.4329 12.1635 36.9644C15.3443 31.5203 9.84164 26.3025 4.94668 22.3282V22.3282C2.12611 20.0382 0.71582 17.112 0.71582 13.5496C0.71582 9.47837 2.05559 6.23409 4.73514 3.81679C7.55571 1.27226 10.9404 0 14.8892 0C19.4021 0 23.2099 1.4631 26.3125 4.38931C29.4152 7.18829 30.9665 11.2595 30.9665 16.6031C30.9665 23.6005 28.9921 30.0891 25.0433 36.0687C21.3979 41.4714 16.7911 45.844 11.2228 49.1866C10.3458 49.7131 9.2637 49.7441 8.33672 49.3115V49.3115ZM52.7518 49.3074C50.6012 48.3038 50.2378 45.381 51.8649 43.6534C54.2808 41.0884 56.1455 38.3331 57.4593 35.3873C59.6071 30.5713 55.1601 26.1624 50.6786 23.3833C50.1566 23.0596 49.6501 22.7079 49.1592 22.3282C46.3386 20.0382 44.9283 17.112 44.9283 13.5496C44.9283 9.47837 46.3386 6.23409 49.1592 3.81679C51.9798 1.27226 55.3644 0 59.3132 0C63.6851 0 67.4224 1.4631 70.525 4.38931C73.6277 7.18829 75.179 11.2595 75.179 16.6031C75.179 23.6005 73.2046 30.0891 69.2558 36.0687C65.7426 41.4683 61.209 45.8391 55.655 49.181C54.7732 49.7115 53.6844 49.7425 52.7518 49.3074V49.3074Z" fill="#F5F3F0"/>
</svg>
