<svg width="81" height="17" viewBox="0 0 81 17" fill="none" xmlns="http://www.w3.org/2000/svg">
<g id="star rating">
<path id="Vector" d="M8.55696 14.2698L12.707 16.7798C13.467 17.2398 14.397 16.5598 14.197 15.6998L13.097 10.9798L16.767 7.79977C17.437 7.21977 17.077 6.11977 16.197 6.04977L11.367 5.63977L9.47696 1.17977C9.13696 0.369766 7.97696 0.369766 7.63696 1.17977L5.74696 5.62977L0.916957 6.03977C0.0369575 6.10977 -0.323043 7.20977 0.346957 7.78977L4.01696 10.9698L2.91696 15.6898C2.71696 16.5498 3.64696 17.2298 4.40696 16.7698L8.55696 14.2698Z" fill="#FFDE01"/>
<path id="Vector_2" d="M29.6707 14.2698L33.8207 16.7798C34.5807 17.2398 35.5107 16.5598 35.3107 15.6998L34.2107 10.9798L37.8807 7.79977C38.5507 7.21977 38.1907 6.11977 37.3107 6.04977L32.4807 5.63977L30.5907 1.17977C30.2507 0.369766 29.0907 0.369766 28.7507 1.17977L26.8607 5.62977L22.0307 6.03977C21.1507 6.10977 20.7907 7.20977 21.4607 7.78977L25.1307 10.9698L24.0307 15.6898C23.8307 16.5498 24.7607 17.2298 25.5207 16.7698L29.6707 14.2698Z" fill="#FFDE01"/>
<path id="Vector_3" d="M50.7847 13.6975L54.9347 16.2075C55.6947 16.6675 56.6247 15.9875 56.4247 15.1275L55.3247 10.4075L58.9947 7.2275C59.6647 6.6475 59.3047 5.5475 58.4247 5.4775L53.5947 5.0675L51.7047 0.6075C51.3647 -0.2025 50.2047 -0.2025 49.8647 0.6075L47.9747 5.0575L43.1447 5.4675C42.2647 5.5375 41.9047 6.6375 42.5747 7.2175L46.2447 10.3975L45.1447 15.1175C44.9447 15.9775 45.8747 16.6575 46.6347 16.1975L50.7847 13.6975Z" fill="#FFDE01"/>
<path id="Vector_4" d="M71.8988 13.6975L76.0488 16.2075C76.8088 16.6675 77.7388 15.9875 77.5388 15.1275L76.4388 10.4075L80.1088 7.2275C80.7788 6.6475 80.4188 5.5475 79.5388 5.4775L74.7088 5.0675L72.8188 0.6075C72.4788 -0.2025 71.3188 -0.2025 70.9788 0.6075L69.0888 5.0575L64.2588 5.4675C63.3788 5.5375 63.0188 6.6375 63.6888 7.2175L67.3588 10.3975L66.2588 15.1175C66.0588 15.9775 66.9888 16.6575 67.7488 16.1975L71.8988 13.6975Z" fill="#FFDE01"/>
</g>
</svg>
