<svg width="24" height="24" viewBox="0 0 24 24" fill="none" xmlns="http://www.w3.org/2000/svg">
<path id="Vector" d="M24 11.9878C23.9616 10.944 23.5588 9.95625 22.8748 9.2281C22.23 8.50075 21.4668 7.91162 20.6245 7.49099C20.6245 7.49099 20.5682 7.49099 20.5232 7.41707L5.16456 0.333108C4.71728 0.118767 4.23505 0.00562278 3.74684 0.000469573C3.25747 -0.00769944 2.77151 0.0907899 2.31723 0.290206C1.86295 0.489621 1.44944 0.78598 1.10076 1.16203C0.752076 1.53808 0.475188 1.98632 0.286212 2.48065C0.0972345 2.97497 -5.68438e-05 3.50552 2.49162e-08 4.04141C0.0193304 4.75914 0.176517 5.46436 0.461322 6.11116L2.5429 11.9878L0.461322 17.8767C0.179322 18.5246 0.0222823 19.2291 2.49162e-08 19.9464C-3.61876e-05 20.4829 0.0971852 21.014 0.286028 21.509C0.47487 22.004 0.751576 22.4531 1.1001 22.8301C1.44863 23.2071 1.86205 23.5047 2.31638 23.7054C2.77072 23.9062 3.25693 24.0062 3.74684 23.9997C4.24264 23.9979 4.73283 23.8847 5.18706 23.6671V23.6671L20.5007 16.5831C20.5537 16.5534 20.6029 16.5161 20.647 16.4722C21.4984 16.0146 22.2622 15.3832 22.8973 14.6119C23.2079 14.2461 23.4659 13.8307 23.6624 13.3799C23.8661 12.9483 23.9813 12.4732 24 11.9878V11.9878ZM3.74684 2.46446C3.99432 2.46547 4.23777 2.53316 4.4557 2.66158C4.50557 2.68942 4.55852 2.71013 4.61322 2.72317L19.0492 9.42522C19.7918 9.73213 20.4778 10.1828 21.0745 10.7558H4.52321L2.36287 4.66972C2.2984 4.47189 2.26419 4.26376 2.2616 4.05373C2.25999 3.84139 2.29757 3.63089 2.37207 3.43484C2.44657 3.23879 2.55646 3.06123 2.69516 2.91282C2.83386 2.76441 2.9985 2.64819 3.17922 2.57115C3.35993 2.4941 3.553 2.45781 3.74684 2.46446V2.46446ZM2.25035 19.9464C2.25678 19.7529 2.29095 19.5617 2.35162 19.3797V19.3797L4.52321 13.2198H20.9845C20.4207 13.7882 19.7641 14.2354 19.0492 14.538V14.538L4.55696 21.2647H4.39944C4.18447 21.4025 3.9397 21.4748 3.69058 21.4741C3.31712 21.4713 2.95905 21.3109 2.69081 21.0264C2.42257 20.7418 2.26482 20.3551 2.25035 19.9464V19.9464Z" fill="#222221"/>
</svg>
