<?xml version="1.0" encoding="utf-8"?>
<!-- Generator: Adobe Illustrator 27.5.0, SVG Export Plug-In . SVG Version: 6.00 Build 0)  -->
<svg version="1.1" xmlns="http://www.w3.org/2000/svg" xmlns:xlink="http://www.w3.org/1999/xlink" x="0px" y="0px"
	 viewBox="0 0 500 500" style="enable-background:new 0 0 500 500;" xml:space="preserve">
<g id="BACKGROUND">
	<rect style="fill:none;" width="500" height="500"/>
</g>
<g id="OBJECTS">
	<g>
		<g>
			<path style="fill:#E9FBFF;" d="M250.533,121.519c-13.323-1.389-26.4,2.31-38.321,8.063
				c-10.822,5.223-20.957,11.989-30.131,19.738c-17.222,14.547-31.651,33.419-38.289,55.174c-6.656,21.814-3.951,44.83,6.636,64.933
				c11.11,21.098,29.253,37.948,49.629,49.98c22.308,13.172,47.764,20.965,73.624,22.527c23.684,1.43,49.01-2.362,68.887-16.113
				c18.131-12.543,28.771-32.632,31.614-54.251c2.937-22.339-2.25-44.788-13.354-64.26c-11.787-20.671-29.301-37.576-48.606-51.229
				c-21.022-14.868-45.461-27.939-71.59-29.835c-6.296-0.457-12.593-0.161-18.822,0.849c-0.965,0.157-0.555,1.624,0.405,1.469
				c26.58-4.311,52.839,6.128,75.224,19.662c19.804,11.973,38.315,26.852,52.42,45.327c13.656,17.886,22.718,39.101,23.552,61.762
				c0.779,21.15-5.309,43.06-19.79,58.905c-16.059,17.571-40.114,25.043-63.307,26.282c-24.944,1.333-50.335-3.787-73.105-13.953
				c-40.876-18.25-80.237-57.465-75.222-105.708c2.318-22.298,13.895-42.706,29.001-58.882c7.673-8.216,16.341-15.492,25.703-21.71
				c10.587-7.031,22.2-13.125,34.662-15.97c6.306-1.44,12.741-1.906,19.177-1.235C251.507,123.144,251.5,121.62,250.533,121.519
				L250.533,121.519z"/>
		</g>
		<g>
			<path style="fill:#E9FBFF;" d="M260.616,347.056c-13.609,4.721-28.399,2.613-42.284,0.36
				c-13.289-2.157-26.462-5.257-39.127-9.861c-23.934-8.702-46.1-23.301-60.47-44.684c-13.31-19.805-17.811-43.641-11.99-66.837
				c5.649-22.513,19.581-42.652,37.461-57.248c41.105-33.556,99.764-35.854,150.09-29.536c14.685,1.844,29.262,4.696,43.491,8.784
				c11.921,3.425,24.302,7.508,34.081,15.418c10.322,8.349,15.369,20.534,14.957,33.721c-0.428,13.706-6.416,26.357-14.079,37.473
				c-14.321,20.775-33.153,39.065-52.993,54.532c-19.968,15.566-42.025,28.495-65.402,38.226c-5.621,2.34-11.319,4.485-17.079,6.459
				c-0.922,0.316-0.526,1.787,0.405,1.468c49.366-16.918,93.886-47.533,127.126-87.793c15.889-19.245,31.517-45.977,19.424-71.197
				c-5.205-10.857-15.375-18.016-26.102-22.799c-12.87-5.739-26.885-9.233-40.652-12.034c-28.012-5.699-57.266-7.952-85.79-5.633
				c-26.245,2.134-52.485,8.68-75.175,22.397c-39.854,24.094-66.77,74.969-47.27,120.406c9.85,22.952,29.067,40.834,50.974,52.226
				c12.243,6.367,25.374,10.912,38.763,14.174c13.673,3.331,28.1,6.077,42.209,6.31c6.737,0.111,13.449-0.648,19.836-2.864
				C261.941,348.206,261.546,346.734,260.616,347.056L260.616,347.056z"/>
		</g>
		
			<ellipse transform="matrix(0.7071 -0.7071 0.7071 0.7071 -102.3201 161.1712)" style="fill:#E9FBFF;" cx="143.391" cy="204.097" rx="7.615" ry="7.615"/>
		<path style="fill:#E9FBFF;" d="M160.144,121.348c0,2.523-2.046,4.569-4.569,4.569c-2.523,0-4.569-2.046-4.569-4.569
			c0-2.523,2.046-4.569,4.569-4.569C158.098,116.779,160.144,118.824,160.144,121.348z"/>
		<path style="fill:#E9FBFF;" d="M135.776,274.154c0,2.523-2.046,4.569-4.569,4.569c-2.523,0-4.569-2.046-4.569-4.569
			c0-2.523,2.046-4.569,4.569-4.569C133.73,269.585,135.776,271.631,135.776,274.154z"/>
		<path style="fill:#E9FBFF;" d="M328.18,200.289c0,2.103-1.705,3.807-3.807,3.807c-2.103,0-3.807-1.705-3.807-3.807
			c0-2.103,1.705-3.807,3.807-3.807C326.475,196.482,328.18,198.186,328.18,200.289z"/>
		<path style="fill:#E9FBFF;" d="M196.695,198.259c0,0.981-0.796,1.777-1.777,1.777c-0.981,0-1.777-0.796-1.777-1.777
			c0-0.981,0.796-1.777,1.777-1.777C195.9,196.482,196.695,197.277,196.695,198.259z"/>
		<path style="fill:#E9FBFF;" d="M311.935,98.249c0,1.542-1.25,2.792-2.792,2.792c-1.542,0-2.792-1.25-2.792-2.792
			c0-1.542,1.25-2.792,2.792-2.792C310.685,95.457,311.935,96.707,311.935,98.249z"/>
		<path style="fill:#E9FBFF;" d="M311.935,324.667c0,1.542-1.25,2.792-2.792,2.792c-1.542,0-2.792-1.25-2.792-2.792
			c0-1.542,1.25-2.792,2.792-2.792C310.685,321.875,311.935,323.125,311.935,324.667z"/>
		<path style="fill:#E9FBFF;" d="M420.067,262.986c0,3.645-2.955,6.6-6.6,6.6s-6.6-2.955-6.6-6.6c0-3.645,2.955-6.6,6.6-6.6
			S420.067,259.341,420.067,262.986z"/>
		<circle style="fill:#E9FBFF;" cx="92.117" cy="315.783" r="7.107"/>
		<path style="fill:#E9FBFF;" d="M85.517,158.661c0,1.542-1.25,2.792-2.792,2.792c-1.542,0-2.792-1.25-2.792-2.792
			c0-1.542,1.25-2.792,2.792-2.792C84.267,155.869,85.517,157.119,85.517,158.661z"/>
		<circle style="fill:#E9FBFF;" cx="255.584" cy="67.028" r="8.123"/>
		<circle style="fill:#E9FBFF;" cx="298.228" cy="409.7" r="5.584"/>
		<circle style="fill:#E9FBFF;" cx="374.885" cy="175.16" r="6.6"/>
	</g>
	<g>
		<path style="fill:#1D3542;" d="M187.982,296.583l5.215-4.267c-2.325-5.314-7.903-6.206-11.038-6.265l-5.341,2.777
			C178.362,296.577,187.982,296.583,187.982,296.583z"/>
		<path style="fill:#1D3542;" d="M231.364,291.131c0,0-8.534-5.215-14.223,1.422c0,0-5.215-4.267-14.224,2.371l-3.319,1.422
			c0,0,9.008,7.112,18.965,1.896c0,0,15.646,2.371,16.12-1.896C235.157,292.079,231.364,291.131,231.364,291.131z"/>
		<g>
			<defs>
				<path id="XMLID_16_" d="M258.625,194.649c0,0,27.499-11.853,32.714-35.085c5.215-23.232-14.698-48.834-14.698-48.834
					s-82.496,70.643-64.48,85.341c9.294,7.582,46.463,4.267,46.463,4.267"/>
			</defs>
			<use xlink:href="#XMLID_16_"  style="overflow:visible;fill:#1D3542;"/>
			<clipPath id="XMLID_00000152974849327541733730000010178207076561203094_">
				<use xlink:href="#XMLID_16_"  style="overflow:visible;"/>
			</clipPath>
			<path style="opacity:0.22;clip-path:url(#XMLID_00000152974849327541733730000010178207076561203094_);fill:#1D3542;" d="
				M225.911,168.572c0,0,9.008,22.758,25.602,21.809c16.594-0.948,28.272-22.122,29.308-32.87
				C281.857,146.763,224.015,156.719,225.911,168.572"/>
		</g>
		<g>
			<defs>
				<path id="XMLID_15_" d="M226.86,308.91c0,0-18.016,27.499-18.965,31.766c0,0-61.161,3.319-75.384,9.482
					c-14.223,6.164-19.439,24.654-7.112,34.136s94.349,12.801,117.107,4.741c0,0,117.581,15.646,137.494-7.112
					c19.913-22.757-36.033-45.041-83.444-42.67c0,0-16.594-32.714-25.602-36.981C261.944,298.006,226.86,308.91,226.86,308.91z"/>
			</defs>
			<use xlink:href="#XMLID_15_"  style="overflow:visible;fill:#D25A5C;"/>
			<clipPath id="XMLID_00000076567878432180711730000013943509931117179070_">
				<use xlink:href="#XMLID_15_"  style="overflow:visible;"/>
			</clipPath>
			<path style="opacity:0.23;clip-path:url(#XMLID_00000076567878432180711730000013943509931117179070_);fill:#D25A5C;" d="
				M250.371,389.984c0,0-23.511-1.897-44.847-17.068c0,0,13.275,18.49,28.447,21.335
				C249.143,397.096,250.371,389.984,250.371,389.984z"/>
			<path style="opacity:0.23;clip-path:url(#XMLID_00000076567878432180711730000013943509931117179070_);fill:#D25A5C;" d="
				M160.957,351.581c-0.902,0.992-5.689,3.319-0.948,5.215c4.741,1.896,30.818,16.12,37.455,14.224
				C204.102,369.123,165.699,346.366,160.957,351.581z"/>
			<path style="opacity:0.23;clip-path:url(#XMLID_00000076567878432180711730000013943509931117179070_);fill:#D25A5C;" d="
				M301.226,368.581c1.018,0.069,21.405-5.147,30.414-8.94c9.008-3.793,10.905-6.638,13.275-6.638s1.896-4.741-4.741-4.267
				c-6.638,0.474-34.136,12.327-34.136,12.327l-4.811,8.206"/>
			<path style="opacity:0.23;clip-path:url(#XMLID_00000076567878432180711730000013943509931117179070_);fill:#D25A5C;" d="
				M294.658,356.796c0,0-21.809,4.741-25.128,4.267c-3.319-0.474,6.638-20.861,29.869-22.758c0,0-22.758-0.474-37.929,16.594
				c-15.172,17.068-27.973-4.267-37.455-9.008c0,0,15.237,19.216,15.916,21.698c0,0,23.594-3.034,30.39-1.935
				c0,0,17.226,0.15,25.523-9.095L294.658,356.796z"/>
			<g style="clip-path:url(#XMLID_00000076567878432180711730000013943509931117179070_);">
				<g>
					<path style="fill:#AA353B;" d="M213.501,366.001c8.73,3.667,17.949,2.849,27.145,1.867c11.02-1.177,22.07-2.001,33.16-1.838
						c8.207,0.121,16.381,0.506,24.309,2.717c5.567,1.553,11.189,3.176,16.598,5.224c0.428,0.162,0.614-0.525,0.189-0.686
						c-12.175-4.609-24.146-7.412-37.163-7.869c-10.827-0.38-21.669,0.18-32.443,1.251c-10.597,1.053-21.45,2.915-31.607-1.352
						C213.269,365.138,213.085,365.826,213.501,366.001L213.501,366.001z"/>
				</g>
			</g>
			<g style="clip-path:url(#XMLID_00000076567878432180711730000013943509931117179070_);">
				<g>
					<path style="fill:#AA353B;" d="M206.841,374.993c12.495,7.216,25.913,12.318,40.049,15.219
						c0.447,0.092,0.638-0.594,0.189-0.686c-14.073-2.888-27.436-7.961-39.879-15.147
						C206.803,374.15,206.445,374.764,206.841,374.993L206.841,374.993z"/>
				</g>
			</g>
			<g style="clip-path:url(#XMLID_00000076567878432180711730000013943509931117179070_);">
				<g>
					<path style="fill:#AA353B;" d="M182.432,360.154c-7.429-1.833-14.826-3.326-22.289-0.861c-0.433,0.143-0.247,0.83,0.189,0.686
						c7.346-2.426,14.613-0.94,21.911,0.861C182.687,360.95,182.877,360.264,182.432,360.154L182.432,360.154z"/>
				</g>
			</g>
			<g style="opacity:0.49;clip-path:url(#XMLID_00000076567878432180711730000013943509931117179070_);">
				<path style="fill:#D25A5C;" d="M239.097,367.051c-2.643-3.823-5.286-7.646-7.928-11.47"/>
			</g>
			<g style="clip-path:url(#XMLID_00000076567878432180711730000013943509931117179070_);">
				<g>
					<path style="fill:#AA353B;" d="M300.585,337.713c-6.448,0.402-12.958,2.524-18.655,5.528c-0.405,0.214-0.046,0.828,0.359,0.614
						c5.562-2.933,11.994-5.039,18.296-5.431C301.039,338.396,301.042,337.685,300.585,337.713L300.585,337.713z"/>
				</g>
			</g>
			<g style="clip-path:url(#XMLID_00000076567878432180711730000013943509931117179070_);">
				<g>
					<path style="fill:#AA353B;" d="M205.524,340.584c5.125,0.278,9.705,2.34,13.321,5.977c0.323,0.325,0.826-0.178,0.503-0.503
						c-3.741-3.762-8.528-5.898-13.824-6.185C205.066,339.848,205.068,340.559,205.524,340.584L205.524,340.584z"/>
				</g>
			</g>
			<g style="clip-path:url(#XMLID_00000076567878432180711730000013943509931117179070_);">
				<g>
					<path style="fill:#AA353B;" d="M292.151,359.654c-6.107,3.098-12.145,5.371-19.065,5.558c-0.457,0.012-0.459,0.724,0,0.711
						c7.008-0.189,13.234-2.515,19.424-5.655C292.918,360.061,292.558,359.447,292.151,359.654L292.151,359.654z"/>
				</g>
			</g>
		</g>
		<g>
			<defs>
				<path id="XMLID_14_" d="M206.319,216.089c0.044,0.947-2.014,7.688-4.036,25.344c-2.022,17.656-12.281,41.867-12.148,44.709
					c0.133,2.841-6.387,5.52-11.516,17.625c-5.13,12.106-16.119,20.688-18.85,23.189c0,0-5.772-1.629-11.906-0.867
					c-6.135,0.762-11.906-0.867-12.942-2.717c0,0-2.731,2.501-0.252,4.758c2.479,2.257,8.073,0.097,9.627,2.872
					c1.554,2.775-2.036,7.215-5.417,5.949c-3.382-1.266-4.44-3.589-4.98-4.988c-0.54-1.399,1.562-7.193-2.767-8.414
					c0,0-1.292,7.892-0.73,9.764c0,0-5.993-6.365-9.175-3.368c0,0,5.927,4.944,6.467,6.342c0,0-4.847-2.147-6.135,0.762
					c0,0,4.395,2.642,6.312,3.027c1.917,0.385,3.36,0.792,4.373,2.169c0,0-5.254-0.704-5.594,2.16c0,0,5.21-0.244,7.622,0.593
					c2.412,0.836,11.455,1.363,14.682-0.687c3.227-2.049,47.651-26.435,57.503-49.203c0,0,11.874-40.425,11.904-49.919"/>
			</defs>
			<use xlink:href="#XMLID_14_"  style="overflow:visible;fill:#F4A082;"/>
			<clipPath id="XMLID_00000027600969586448790210000014701976680505684134_">
				<use xlink:href="#XMLID_14_"  style="overflow:visible;"/>
			</clipPath>
			<path style="opacity:0.21;clip-path:url(#XMLID_00000027600969586448790210000014701976680505684134_);fill:#D18161;" d="
				M197.464,263.395c0,0,9.956,20.387,22.758,28.447C233.023,299.902,214.058,248.698,197.464,263.395"/>
		</g>
		<g>
			<defs>
				<path id="XMLID_13_" d="M300.822,217.88c-0.051,0.947,1.165,3.748,3.058,21.418c1.893,17.67,11.975,41.956,11.821,44.797
					c-0.154,2.841,6.346,5.566,11.387,17.709c5.041,12.143,15.968,20.806,18.68,23.327c0,0,5.784-1.586,11.912-0.78
					c6.129,0.806,11.912-0.78,12.962-2.622c0,0,2.713,2.521,0.217,4.76c-2.495,2.239-8.074,0.038-9.648,2.802
					c-1.574,2.764,1.983,7.229,5.374,5.988c3.391-1.241,4.466-3.557,5.016-4.952c0.55-1.395-1.51-7.204,2.828-8.394
					c0,0,1.234,7.901,0.659,9.769c0,0,6.04-6.321,9.2-3.301c0,0-5.963,4.9-6.513,6.295c0,0,4.862-2.111,6.129,0.806
					c0,0-4.414,2.61-6.334,2.981c-1.919,0.371-3.365,0.768-4.389,2.137c0,0,5.259-0.665,5.579,2.201c0,0-5.208-0.282-7.626,0.537
					c-2.418,0.819-11.465,1.279-14.676-0.794c-3.212-2.073-47.457-26.782-57.142-49.622c0,0-11.578-40.51-11.539-50.004"/>
			</defs>
			<use xlink:href="#XMLID_13_"  style="overflow:visible;fill:#F4A082;"/>
			<clipPath id="XMLID_00000131363400513215211350000014062282025658153914_">
				<use xlink:href="#XMLID_13_"  style="overflow:visible;"/>
			</clipPath>
			<path style="opacity:0.21;clip-path:url(#XMLID_00000131363400513215211350000014062282025658153914_);fill:#D18161;" d="
				M299.399,301.325c0,0,9.008-15.172,17.068-17.068C324.527,282.36,295.132,265.292,299.399,301.325z"/>
		</g>
		<g>
			<defs>
				<path id="XMLID_12_" d="M225.911,310.807l-9.008-64.48l-11.279-26.6c0.029-0.016-2.201-6.739,23.132-18.915
					c25.611-12.31,70.643,2.371,72.294,18.585c1.82,17.868-11.133,23.612-11.133,23.612l-9.956,67.799
					C279.961,310.807,256.729,322.66,225.911,310.807z"/>
			</defs>
			<use xlink:href="#XMLID_12_"  style="overflow:visible;fill:#F4A082;"/>
			<clipPath id="XMLID_00000005228450248680017190000015934247154525898121_">
				<use xlink:href="#XMLID_12_"  style="overflow:visible;"/>
			</clipPath>
			<path style="opacity:0.21;clip-path:url(#XMLID_00000005228450248680017190000015934247154525898121_);fill:#D18161;" d="
				M220.222,291.842c-0.132,1.052,43.712,30.313,64.764,14.208C306.037,289.946,224.489,257.706,220.222,291.842z"/>
		</g>
		<g>
			<defs>
				<path id="XMLID_11_" d="M231.453,200.744c-0.787,2.366,13.358-14.66,12.022-39.284h16.002c0,0,0.019,30.65,16.216,40.216
					C275.693,201.676,250.204,225.331,231.453,200.744z"/>
			</defs>
			<use xlink:href="#XMLID_11_"  style="overflow:visible;fill:#F4A082;"/>
			<clipPath id="XMLID_00000155844645568369809690000014770476853822224822_">
				<use xlink:href="#XMLID_11_"  style="overflow:visible;"/>
			</clipPath>
			
				<ellipse style="opacity:0.34;clip-path:url(#XMLID_00000155844645568369809690000014770476853822224822_);fill:#D18161;" cx="251.277" cy="178.766" rx="14.461" ry="11.616"/>
		</g>
		<path style="fill:#F4A082;" d="M212.636,365.804c0,0-1.896-5.215-3.793-10.905c-1.896-5.689-9.956-6.163-16.12-2.845
			c-6.163,3.319-18.965-4.267-23.706-4.741c-4.741-0.474-11.379,0-9.956,3.793c1.665,4.439,7.586,0.474,9.956,3.319
			c2.37,2.845,29.869,20.861,37.929,20.861C206.947,375.287,212.636,373.864,212.636,365.804z"/>
		<path style="fill:#F4A082;" d="M292.92,358.927c0,0,2.39-5.008,4.826-10.489c2.436-5.48,10.504-5.176,16.319-1.279
			c5.815,3.897,19.287-2.421,24.052-2.436c4.765-0.015,11.326,1.096,9.545,4.734c-2.085,4.258-7.596-0.259-10.23,2.344
			c-2.634,2.603-31.74,17.888-39.762,17.111C297.669,368.913,292.143,366.949,292.92,358.927z"/>
		<g>
			<defs>
				<path id="XMLID_10_" d="M208.289,214.144c0.573,0.031,79.356,29.03,94.241,14.013c0,0,2.98,24.07,6.351,33.342
					c3.793,10.431,7.586,22.284,7.586,22.758c0,0-5.215-0.948-21.335,15.172c-21.791,21.791-69.023,2.009-97.806-36.214
					C197.327,263.215,200.624,213.727,208.289,214.144z"/>
			</defs>
			<use xlink:href="#XMLID_10_"  style="overflow:visible;fill:#FFD2B9;"/>
			<clipPath id="XMLID_00000067227931175379704800000007046461181073739666_">
				<use xlink:href="#XMLID_10_"  style="overflow:visible;"/>
			</clipPath>
			<g style="clip-path:url(#XMLID_00000067227931175379704800000007046461181073739666_);">
				<path style="fill:#FCEBE6;" d="M193.264,237.135c9.102-4.434,21.125,2.513,30.307-1.78c1.022-0.478,1.996-1.093,3.119-1.309
					c1.01-0.194,2.056-0.048,3.075,0.099c9.878,1.424,19.755,2.848,29.633,4.272c2.648,0.382,5.309,0.765,7.99,0.775
					c3.517,0.014,7.135-0.604,10.488,0.371c1.592,0.463,3.043,1.266,4.608,1.801c4.101,1.402,8.645,0.875,12.98,0.329
					c5.902-0.743,11.803-1.487,17.705-2.23c1.682-0.212,4.042,0.04,4.17,1.598c0.138,1.675-2.422,2.126-4.248,2.122
					c-5.448-0.014-10.755,1.515-16.172,2.057c-3.898,0.39-7.833,0.267-11.751,0.133c-18.832-0.643-37.654-1.524-56.459-2.641
					c-3.629-0.216-7.266-0.441-10.848-1.019c-1.272-0.205-2.585-0.454-3.838-0.168c-1.044,0.238-1.954,0.828-2.978,1.131
					c-3.961,1.17-7.957-2.186-12.108-1.938c-1.83,0.11-3.589,0.924-5.415,0.775c-1.827-0.149-3.631-2.105-2.505-3.437"/>
			</g>
			<g style="clip-path:url(#XMLID_00000067227931175379704800000007046461181073739666_);">
				<path style="fill:#FCEBE6;" d="M189.814,252.094c0.411-2.03,3.341-2.745,5.479-2.122c2.139,0.623,3.879,2.079,5.962,2.846
					c6.402,2.356,13.372-2.33,20.258-2.023c4.658,0.208,9.081,2.712,13.709,2.187c1.366-0.155,2.683-0.572,4.048-0.736
					c2.882-0.346,5.76,0.452,8.588,1.071c9.326,2.044,19,2.206,28.586,2.359c5.864,0.094,11.728,0.187,17.592,0.281
					c5.291,0.084,10.668,0.159,15.767-1.142c1.97-0.503,3.919-1.213,5.963-1.237c2.044-0.024,4.282,0.851,5.011,2.609
					c-5.894,0.774-11.788,1.548-17.682,2.323c-2.868,0.377-5.743,0.754-8.638,0.845c-4.413,0.138-8.815-0.391-13.226-0.577
					c-13.687-0.577-27.503,2.141-41.036,0.17c-3.559-0.518-7.115-1.361-10.71-1.134c-3.096,0.195-6.118,1.182-9.219,1.088
					c-2.314-0.07-4.548-0.74-6.783-1.295c-7.825-1.943-16.045-2.533-24.103-1.73c-0.98-1.432-1.959-2.864-2.939-4.296
					c1.189-0.05,2.378-0.099,3.566-0.149"/>
			</g>
			<g style="clip-path:url(#XMLID_00000067227931175379704800000007046461181073739666_);">
				<path style="fill:#FCEBE6;" d="M189.861,267.464c4.166-2.518,9.686-1.906,14.448-0.551c4.762,1.355,9.434,3.375,14.418,3.405
					c4.669,0.028,9.162-1.707,13.826-1.927c7.413-0.35,14.699,3.139,22.044,2.155c3.101-0.416,6.051-1.619,9.176-1.836
					c2.313-0.161,4.626,0.225,6.908,0.609c4.578,0.771,9.156,1.542,13.734,2.313c1.41,0.237,2.837,0.476,4.268,0.389
					c1.858-0.113,3.618-0.766,5.362-1.364c4.388-1.504,8.9-2.702,13.485-3.581c2.474-0.474,5.178-0.829,7.422,0.241
					c0.863,0.412,1.624,1.023,2.555,1.278c1.82,0.499,3.682-0.468,5.531-0.866c1.849-0.398,4.428,0.361,4.333,2.106
					c-5.226,1.718-10.977,0.851-16.52,1.096c-5.886,0.26-11.607,1.789-17.416,2.703c-9.071,1.427-18.419,1.343-27.458-0.247
					c-3.097-0.545-6.178-1.267-9.329-1.383c-3.736-0.137-7.437,0.582-11.145,1.023c-9.253,1.1-18.634,0.47-27.939-0.163
					c-5.102-0.347-10.204-0.693-15.305-1.04c-3.949-0.268-7.921-0.54-11.764-1.42c-0.821-0.188-1.708-0.452-2.161-1.11
					c-0.453-0.658-0.073-1.781,0.774-1.776"/>
			</g>
			<g style="clip-path:url(#XMLID_00000067227931175379704800000007046461181073739666_);">
				<path style="fill:#FCEBE6;" d="M207.059,284.354c3.558-1.501,7.736-0.957,11.479,0.097c3.743,1.054,7.363,2.592,11.247,3.039
					c11.041,1.27,22.521-6.387,32.788-2.44c1.797,0.691,3.55,1.738,5.496,1.661c1.465-0.058,2.797-0.753,4.203-1.137
					c4.013-1.097,8.267,0.383,12.142,1.841c1.436,0.54,3.018,1.089,4.5,0.665c1.102-0.315,1.954-1.123,3.001-1.568
					c2.359-1.003,5.08-0.008,7.651,0.345c3.81,0.523,7.65-0.42,11.46-0.942c3.81-0.522,8.014-0.54,11.139,1.533
					c-2.317,1.635-5.365,2.064-8.278,2.248c-9.693,0.612-19.635-0.865-29.026,1.427c-1.496,0.365-2.998,0.828-4.545,0.781
					c-1.693-0.051-3.283-0.708-4.881-1.226c-6.055-1.965-12.617-2.016-19.037-2.045c-2.649-0.012-5.304-0.024-7.938,0.238
					c-6.107,0.606-12.056,2.674-18.194,2.457c-7.412-0.262-14.361-3.838-21.778-3.91c-1.074-0.011-2.191,0.046-3.176-0.347
					c-0.985-0.394-1.778-1.42-1.426-2.354s2.161-1.062,2.389-0.095"/>
			</g>
			<g style="clip-path:url(#XMLID_00000067227931175379704800000007046461181073739666_);">
				<path style="fill:#FCEBE6;" d="M192.785,226.002c1.923-3.278,6.496-4.497,10.527-4.167c4.031,0.33,7.821,1.852,11.763,2.699
					c4.079,0.876,8.341,1.021,12.479,0.424c2.208-0.318,4.437-0.846,6.647-0.542c2.12,0.292,4.027,1.325,6.084,1.878
					c7.296,1.961,14.709-2.289,22.239-3.243c5.044-0.639,10.156,0.223,15.156,1.113c12.224,2.175,24.71,4.539,37.029,2.881
					c-0.071,2.771-4.005,3.724-7.015,3.818c-11.894,0.37-23.815-0.017-35.651-1.157c-5.936-0.572-11.892-1.334-17.85-1.01
					c-4.177,0.227-8.329,0.988-12.51,0.836c-7.04-0.255-13.765-3.079-20.809-3.187c-3.624-0.055-7.209,0.613-10.813,0.97
					c-4.909,0.487-9.886,0.398-14.771-0.266c-1.01-0.137-2.108-0.346-2.754-1.073c-0.647-0.728-0.396-2.116,0.615-2.253"/>
			</g>
			<g style="clip-path:url(#XMLID_00000067227931175379704800000007046461181073739666_);">
				<path style="fill:#FCEBE6;" d="M232.597,299.049c11.135,0.268,22.327,0.533,33.363-0.853c2.461-0.309,4.925-0.701,7.408-0.652
					c2.19,0.043,4.353,0.429,6.509,0.79c7.973,1.336,16.01,2.351,24.08,3.042c-6.961,3.09-15.106,2.749-22.76,1.763
					c-7.654-0.986-15.363-2.553-23.034-1.688c-4.426,0.5-8.774,1.806-13.231,1.656c-3.411-0.115-6.782-1.108-9.633-2.836"/>
			</g>
		</g>
		<g>
			<defs>
				<path id="XMLID_1_" d="M282.682,151.092c0,19.604-21.933,35.497-31.168,35.497c-9.235,0-31.168-15.892-31.168-35.497
					c0-19.604,13.377-44.155,30.591-44.155S282.682,131.487,282.682,151.092z"/>
			</defs>
			<use xlink:href="#XMLID_1_"  style="overflow:visible;fill:#F4A082;"/>
			<clipPath id="XMLID_00000098929024011257318390000010677413390445356958_">
				<use xlink:href="#XMLID_1_"  style="overflow:visible;"/>
			</clipPath>
			<path style="opacity:0.18;clip-path:url(#XMLID_00000098929024011257318390000010677413390445356958_);fill:#A05940;" d="
				M250.721,117.414c0,0,11.2,23.635,29.169,32.221s0,0,0,0l-22.307-32.856l-13.34-2.857c0,0-19.77,29.595-16.911,38.531s0,0,0,0
				s16.383-31.731,26.871-34.897c10.489-3.167-5.678-4.667-5.678-4.667"/>
		</g>
		<g>
			<defs>
				<path id="XMLID_9_" d="M251.039,118.316c0,0-16.12,10.431-23.706,34.136c0,0-4.267,10.43-1.422,16.12
					c2.845,5.689,13.749,13.275,11.379,20.387c0,0,0.474,12.327-10.431,20.861c0,0,10.431-4.267,19.439,12.327
					c0,0,18.965-9.956,32.714,7.586c0,0,9.956-11.379,19.913,3.319c0,0,9.008-6.163,13.749,5.689c0,0,7.112-5.689,4.741,9.956
					c0,0,8.06,6.638-1.896,12.801c0,0,1.422,3.319-4.267,6.638l-2.845-8.06c0,0,1.422-1.422,4.741-1.422
					c0,0-2.845-6.638,1.896-9.956c0,0-7.586-1.896-7.586-9.956c0,0-8.534,5.689-14.224-4.267c0,0-13.749,11.379-24.654-3.793
					c0,0-21.809,14.698-31.766-4.741c0,0-27.025,12.327-28.447-11.853c0,0-14.223-19.439,3.793-30.817
					c0,0-16.545-21.883-6.638-41.248c10.43-20.387,20.387-50.73,43.145-37.929c0,0,39.826-17.542,34.136,47.886
					C282.805,151.978,262.892,136.807,251.039,118.316z"/>
			</defs>
			<use xlink:href="#XMLID_9_"  style="overflow:visible;fill:#1D3542;"/>
			<clipPath id="XMLID_00000016053581289218334760000016658955715234383295_">
				<use xlink:href="#XMLID_9_"  style="overflow:visible;"/>
			</clipPath>
			<path style="opacity:0.22;clip-path:url(#XMLID_00000016053581289218334760000016658955715234383295_);fill:#1D3542;" d="
				M225.911,168.572c0,0,9.008,22.758,25.602,21.809c16.594-0.948,28.272-22.122,29.308-32.87
				C281.857,146.763,224.015,156.719,225.911,168.572"/>
		</g>
		<path style="fill:#F4A082;" d="M227.716,153.974c0.904,3.684-0.346,7.158-2.792,7.758c-2.446,0.6-5.161-1.9-6.065-5.585
			c-0.904-3.684,0.346-7.158,2.792-7.758C224.097,147.79,226.812,150.29,227.716,153.974z"/>
		<path style="fill:#F4A082;" d="M279.578,150.656c-0.904,3.684,0.346,7.158,2.792,7.758c2.446,0.6,5.161-1.9,6.065-5.585
			c0.904-3.684-0.346-7.158-2.792-7.758C283.198,144.471,280.482,146.971,279.578,150.656z"/>
		<path style="fill:#1D3542;" d="M199.835,259.603c-9.956-3.319-14.224,8.534-14.224,8.534c-7.112-2.845-9.008,6.163-9.008,6.163
			c-6.163,5.215,0,12.327,0,12.327c0,0.799,0.08,1.526,0.215,2.202l5.341-2.777c-1.34-0.025-2.237,0.101-2.237,0.101
			c2.371-4.741-1.422-9.956-1.422-9.956c7.112,0.474,9.482-5.689,9.482-5.689c25.602,9.482,32.24-19.913,32.24-19.913
			S209.791,262.921,199.835,259.603z"/>
		<path style="fill:#2E2430;" d="M233.159,153.15c2.078,0.501,4.113,0.728,6.154,0.577c2.042-0.133,4.025-0.637,6.016-1.417
			c-1.608,1.437-3.781,2.206-5.951,2.363C237.207,154.813,234.95,154.351,233.159,153.15z"/>
		<g>
			<path style="fill:#A34F31;" d="M247.252,174.918c2.897,1.171,6.033,0.932,8.736-0.623c0.458-0.263,0.045-0.973-0.414-0.709
				c-2.536,1.458-5.397,1.634-8.104,0.54C246.98,173.929,246.767,174.723,247.252,174.918L247.252,174.918z"/>
		</g>
		<path style="fill:#A34F31;" d="M247.361,166.937c0.786,0.023,1.491,0.067,2.188,0.072c0.694,0.01,1.369-0.008,2.043-0.055
			c0.674-0.048,1.345-0.123,2.031-0.228c0.689-0.102,1.382-0.241,2.158-0.37c-0.468,0.637-1.118,1.103-1.823,1.438
			c-0.709,0.332-1.484,0.527-2.267,0.579c-0.784,0.053-1.578-0.033-2.325-0.264C248.62,167.873,247.913,167.501,247.361,166.937z"/>
		<path style="fill:#2E2430;" d="M258.783,153.229c2.078,0.501,4.113,0.729,6.154,0.577c2.041-0.133,4.025-0.637,6.016-1.418
			c-1.608,1.437-3.781,2.206-5.951,2.363C262.831,154.891,260.574,154.429,258.783,153.229z"/>
		<g>
			<path style="fill:#1D3542;" d="M233.009,148.5c2.794-3.214,6.892-4.673,11.083-3.855c0.718,0.14,1.025-0.961,0.304-1.101
				c-4.572-0.893-9.13,0.625-12.194,4.149C231.721,148.245,232.526,149.056,233.009,148.5L233.009,148.5z"/>
		</g>
		<g>
			<path style="fill:#1D3542;" d="M271.3,147.21c-3.065-3.525-7.622-5.042-12.194-4.149c-0.721,0.141-0.416,1.242,0.304,1.101
				c4.191-0.818,8.289,0.641,11.083,3.855C270.975,148.574,271.78,147.763,271.3,147.21L271.3,147.21z"/>
		</g>
		<path style="fill:#1D3542;" d="M251.969,116.708c0.634,2.968,1.809,5.992,3.251,8.784c1.453,2.807,3.196,5.488,5.276,7.896
			c2.074,2.404,4.357,4.67,6.955,6.54c1.242,1.017,2.636,1.812,3.987,2.679c1.367,0.84,2.837,1.498,4.256,2.259
			c-1.45-0.688-2.959-1.277-4.372-2.053c-1.397-0.803-2.843-1.537-4.146-2.5c-2.718-1.762-5.149-3.945-7.389-6.297
			c-2.246-2.357-4.172-5.018-5.815-7.843c-1.639-2.847-2.989-5.803-3.863-9.094L251.969,116.708z"/>
		<path style="fill:#1D3542;" d="M252.626,114.651c-0.656,1.508-1.141,3.248-1.44,4.952c-0.297,1.722-0.395,3.482-0.274,5.234
			c0.098,1.757,0.482,3.498,1.105,5.157c0.569,1.693,1.547,3.207,2.578,4.679c-1.152-1.37-2.282-2.818-3.015-4.494
			c-0.787-1.641-1.347-3.413-1.611-5.234c-0.287-1.817-0.348-3.677-0.195-5.521c0.168-1.857,0.482-3.649,1.101-5.503
			L252.626,114.651z"/>
		<path style="fill:#1D3542;" d="M254.205,116.475c-0.82,0.529-1.677,1.217-2.454,1.92c-0.788,0.71-1.533,1.477-2.225,2.293
			c-0.696,0.813-1.344,1.675-1.918,2.588c-0.597,0.903-1.083,1.873-1.547,2.862c0.315-1.042,0.661-2.089,1.13-3.087
			c0.446-1.009,0.977-1.984,1.571-2.924c0.589-0.944,1.244-1.85,1.959-2.714c0.725-0.871,1.46-1.677,2.368-2.473L254.205,116.475z"
			/>
	</g>
	<path style="opacity:0.56;fill:#A7D3DF;" d="M406.868,432.038c0,2.523-66.141,4.569-147.73,4.569s-147.73-2.046-147.73-4.569
		c0-2.523,66.141-4.569,147.73-4.569S406.868,429.514,406.868,432.038z"/>
</g>
</svg>
