<svg xmlns="http://www.w3.org/2000/svg" width="39" height="26" viewBox="0 0 39 26" fill="none">
  <g clip-path="url(#clip0_668_2231)">
    <path d="M35.4024 0.780273H4.52041C2.77111 0.780273 1.35303 2.19836 1.35303 3.94766V22.1601C1.35303 23.9094 2.77111 25.3275 4.52041 25.3275H35.4024C37.1517 25.3275 38.5698 23.9094 38.5698 22.1601V3.94766C38.5698 2.19836 37.1517 0.780273 35.4024 0.780273Z" fill="white" stroke="black" stroke-opacity="0.2" stroke-width="0.791846"/>
    <path d="M5.37223 9.75092C4.54374 9.29651 3.59819 8.93104 2.54102 8.67742L2.58536 8.47992H6.91989C7.50741 8.50051 7.98415 8.67729 8.13928 9.30159L9.08129 13.7927L9.36987 15.1454L12.0083 8.47992H14.857L10.6224 18.2444H7.77348L5.37223 9.75092ZM16.9526 18.2548H14.2585L15.9436 8.47992H18.6375L16.9526 18.2548ZM26.7189 8.71889L26.3525 10.8296L26.1088 10.7259C25.6213 10.5282 24.9778 10.3307 24.102 10.3516C23.0383 10.3516 22.5613 10.7777 22.5502 11.1937C22.5502 11.6513 23.1273 11.9529 24.0696 12.4001C25.6218 13.0969 26.3417 13.9495 26.331 15.0622C26.3092 17.0901 24.4688 18.4004 21.642 18.4004C20.4334 18.3899 19.2692 18.1503 18.6373 17.8802L19.0143 15.686L19.3691 15.8422C20.2449 16.2065 20.8213 16.3621 21.8969 16.3621C22.6725 16.3621 23.5042 16.0602 23.5148 15.4054C23.5148 14.979 23.1604 14.6668 22.1181 14.1885C21.0984 13.7203 19.7349 12.9405 19.757 11.5366C19.7685 9.63371 21.642 8.30273 24.3025 8.30273C25.3447 8.30273 26.1875 8.52111 26.7189 8.71889ZM30.2996 14.7919H32.5389C32.4281 14.3032 31.9179 11.9634 31.9179 11.9634L31.7296 11.1211C31.5966 11.485 31.364 12.0778 31.3752 12.057C31.3752 12.057 30.5214 14.2303 30.2996 14.7919ZM33.6251 8.47992L35.7985 18.2546H33.3041C33.3041 18.2546 33.0599 17.1315 32.9826 16.7883H29.5236C29.4236 17.0482 28.9582 18.2546 28.9582 18.2546H26.1314L30.1331 9.29094C30.4103 8.65655 30.8986 8.47992 31.5412 8.47992H33.6251Z" fill="#171E6C"/>
  </g>
  <defs>
    <clipPath id="clip0_668_2231">
      <rect width="38.0086" height="25.3391" fill="white" transform="translate(0.957031 0.384277)"/>
    </clipPath>
  </defs>
</svg>