<svg xmlns="http://www.w3.org/2000/svg" width="39" height="26" viewBox="0 0 39 26" fill="none">
  <g clip-path="url(#clip0_668_2239)">
    <path d="M35.1415 0.384277H3.46767C1.71838 0.384277 0.300293 1.80236 0.300293 3.55166V22.556C0.300293 24.3052 1.71838 25.7233 3.46767 25.7233H35.1415C36.8908 25.7233 38.3089 24.3052 38.3089 22.556V3.55166C38.3089 1.80236 36.8908 0.384277 35.1415 0.384277Z" fill="#252525"/>
    <path d="M14.5537 20.9727C18.927 20.9727 22.4722 17.4274 22.4722 13.0542C22.4722 8.68096 18.927 5.13574 14.5537 5.13574C10.1805 5.13574 6.63525 8.68096 6.63525 13.0542C6.63525 17.4274 10.1805 20.9727 14.5537 20.9727Z" fill="#EB001B"/>
    <path d="M24.0557 20.9727C28.4289 20.9727 31.9741 17.4274 31.9741 13.0542C31.9741 8.68096 28.4289 5.13574 24.0557 5.13574C19.6824 5.13574 16.1372 8.68096 16.1372 13.0542C16.1372 17.4274 19.6824 20.9727 24.0557 20.9727Z" fill="#F79E1B"/>
    <path fill-rule="evenodd" clip-rule="evenodd" d="M19.3046 6.71826C21.2279 8.16291 22.472 10.463 22.472 13.0536C22.472 15.6442 21.2279 17.9443 19.3046 19.3889C17.3813 17.9443 16.1372 15.6442 16.1372 13.0536C16.1372 10.463 17.3813 8.16291 19.3046 6.71826Z" fill="#FF5F00"/>
  </g>
  <defs>
    <clipPath id="clip0_668_2239">
      <rect width="38.0086" height="25.3391" fill="white" transform="translate(0.300293 0.384277)"/>
    </clipPath>
  </defs>
</svg>