<svg xmlns="http://www.w3.org/2000/svg" width="39" height="26" viewBox="0 0 39 26" fill="none">
  <g clip-path="url(#clip0_668_2245)">
    <path d="M35.4848 0.384277H3.81094C2.06164 0.384277 0.643555 1.80236 0.643555 3.55166V22.556C0.643555 24.3052 2.06164 25.7233 3.81094 25.7233H35.4848C37.2341 25.7233 38.6521 24.3052 38.6521 22.556V3.55166C38.6521 1.80236 37.2341 0.384277 35.4848 0.384277Z" fill="#016FD0"/>
    <path fill-rule="evenodd" clip-rule="evenodd" d="M22.4419 21.5961V12.5669L38.5125 12.5813V15.0755L36.655 17.0604L38.5125 19.0636V21.6107H35.5468L33.9707 19.8715L32.4059 21.6173L22.4419 21.5961Z" fill="#FFFFFE"/>
    <path fill-rule="evenodd" clip-rule="evenodd" d="M23.5151 20.6062V13.5605H29.4893V15.1836H25.4494V16.2854H29.393V17.8815H25.4494V18.9636H29.4893V20.6062H23.5151Z" fill="#016FD0"/>
    <path fill-rule="evenodd" clip-rule="evenodd" d="M29.4596 20.6061L32.7653 17.0792L29.4595 13.5605H32.0182L34.0381 15.7936L36.0639 13.5605H38.5125V13.616L35.2772 17.0792L38.5125 20.5061V20.6061H36.0392L33.9834 18.3506L31.9487 20.6061H29.4596Z" fill="#016FD0"/>
    <path fill-rule="evenodd" clip-rule="evenodd" d="M23.1915 4.55273H27.0653L28.4259 7.64228V4.55273H33.2085L34.0332 6.86741L34.8607 4.55273H38.5126V13.582H19.2129L23.1915 4.55273Z" fill="#FFFFFE"/>
    <path fill-rule="evenodd" clip-rule="evenodd" d="M23.9251 5.53271L20.7988 12.5725H22.943L23.5328 11.1627H26.7286L27.318 12.5725H29.5155L26.4023 5.53271H23.9251ZM24.1937 9.5829L25.1312 7.34187L26.0681 9.5829H24.1937Z" fill="#016FD0"/>
    <path fill-rule="evenodd" clip-rule="evenodd" d="M29.4858 12.5719V5.53223L32.4998 5.54259L34.0507 9.87038L35.6116 5.53223H38.5123V12.5719L36.6457 12.5884V7.75282L34.8838 12.5719H33.18L31.3815 7.7363V12.5719H29.4858Z" fill="#016FD0"/>
  </g>
  <defs>
    <clipPath id="clip0_668_2245">
      <rect width="38.0086" height="25.3391" fill="white" transform="translate(0.643555 0.384277)"/>
    </clipPath>
  </defs>
</svg>