<svg xmlns="http://www.w3.org/2000/svg" width="39" height="26" viewBox="0 0 39 26" fill="none">
  <g clip-path="url(#clip0_668_2255)">
    <path d="M35.8237 25.3274L35.8271 25.3274C37.3397 25.3403 38.5807 24.1037 38.5996 22.5626L38.5996 3.56171C38.5935 2.81641 38.2969 2.10451 37.7756 1.58289C37.2557 1.0626 36.5549 0.774174 35.8237 0.780386L4.15528 0.780371C3.4275 0.774174 2.7267 1.0626 2.20677 1.58289C1.68553 2.10451 1.38889 2.81641 1.38283 3.55848L1.38281 22.546C1.38889 23.2913 1.68553 24.0032 2.20677 24.5249C2.7267 25.0452 3.4275 25.3336 4.15865 25.3274H35.8237ZM35.8221 26.1192C35.8215 26.1192 35.8209 26.1192 35.8203 26.1192L35.8237 26.1192H35.8221Z" fill="white" stroke="black" stroke-opacity="0.2" stroke-width="0.791846"/>
    <path d="M20.9609 25.7238H35.8236C36.6579 25.7308 37.4607 25.406 38.0555 24.8211C38.6504 24.2361 38.9884 23.4387 38.9954 22.6045V18.8691C33.383 22.0909 27.2963 24.4043 20.9609 25.7238Z" fill="#F27712"/>
    <path d="M37.6852 15.1071H36.3352L34.8148 13.1018H34.6707V15.1071H33.5697V10.1267H35.1949C36.4663 10.1267 37.2002 10.6509 37.2002 11.5946C37.2002 12.3679 36.7415 12.8659 35.9158 13.0232L37.6852 15.1071ZM36.06 11.6339C36.06 11.149 35.693 10.8999 35.0114 10.8999H34.6707V12.4072H34.9852C35.693 12.4072 36.06 12.1451 36.06 11.6339ZM29.7165 10.1267H32.8358V10.9655H30.8174V12.0795H32.7571V12.9314H30.8174V14.2814H32.8358V15.1202H29.7165V10.1267ZM26.1777 15.2382L23.7924 10.1136H24.9981L26.5054 13.4688L28.0257 10.1136H29.2053L26.7937 15.2382H26.2039H26.1777ZM16.2037 15.2251C14.5261 15.2251 13.2155 14.0848 13.2155 12.6038C13.2155 11.1621 14.5523 9.99561 16.23 9.99561C16.7018 9.99561 17.095 10.0874 17.5799 10.2971V11.4504C17.2127 11.0896 16.7186 10.8873 16.2037 10.8868C15.1552 10.8868 14.3557 11.647 14.3557 12.6038C14.3557 13.613 15.1421 14.3338 16.2562 14.3338C16.7542 14.3338 17.1343 14.1765 17.5799 13.7834V14.9367C17.0819 15.1464 16.6625 15.2251 16.2037 15.2251ZM12.8747 13.5868C12.8747 14.5566 12.0752 15.2251 10.9219 15.2251C10.0831 15.2251 9.48016 14.9367 8.96901 14.2814L9.68987 13.6654C9.93889 14.111 10.3583 14.3338 10.8825 14.3338C11.3806 14.3338 11.7345 14.0324 11.7345 13.6392C11.7345 13.4164 11.6296 13.246 11.4068 13.1149C11.1625 12.9964 10.9081 12.8999 10.6466 12.8266C9.61123 12.4989 9.25735 12.1451 9.25735 11.4504C9.25735 10.6378 10.0175 10.0218 11.0136 10.0218C11.6427 10.0218 12.2063 10.2184 12.6781 10.5854L12.1014 11.2407C11.8729 10.9901 11.5494 10.8474 11.2102 10.8475C10.7384 10.8475 10.3976 11.0834 10.3976 11.398C10.3976 11.6601 10.5942 11.8043 11.2495 12.0271C12.5077 12.4203 12.8747 12.7873 12.8747 13.5999V13.5868ZM7.46178 10.1267H8.56271V15.1202H7.46178V10.1267ZM3.92305 15.1202H2.29785V10.1267H3.92305C5.70552 10.1267 6.93752 11.149 6.93752 12.6169C6.93752 13.364 6.57054 14.0717 5.92833 14.5435C5.37786 14.9367 4.76186 15.1202 3.90994 15.1202H3.92305ZM5.20747 11.3718C4.84049 11.0834 4.42109 10.9786 3.70024 10.9786H3.39879V14.2814H3.70024C4.40798 14.2814 4.8536 14.1503 5.20747 13.8882C5.58756 13.5737 5.81037 13.1018 5.81037 12.6169C5.81037 12.1319 5.58756 11.6732 5.20747 11.3718Z" fill="black"/>
    <path d="M20.6472 9.99561C19.2055 9.99561 18.0259 11.149 18.0259 12.5776C18.0259 14.0979 19.153 15.2382 20.6472 15.2382C22.1151 15.2382 23.2684 14.0848 23.2684 12.6169C23.2684 11.149 22.1282 9.99561 20.6472 9.99561Z" fill="#F27712"/>
  </g>
  <defs>
    <clipPath id="clip0_668_2255">
      <rect width="38.0086" height="25.3391" fill="white" transform="translate(0.987305 0.384277)"/>
    </clipPath>
  </defs>
</svg>